<svg xmlns="http://www.w3.org/2000/svg" viewBox="0 0 512 512">
  <defs>
    <linearGradient id="tealGrad" x1="0" y1="0" x2="0" y2="1">
      <stop offset="0%" stop-color="#2dd4bf"/>
      <stop offset="100%" stop-color="#0d9488"/>
    </linearGradient>
    <clipPath id="iosRound">
      <rect width="512" height="512" rx="112"/>
    </clipPath>
  </defs>
  <g clip-path="url(#iosRound)">
    <rect width="512" height="512" fill="white"/>
    <g transform="translate(0.000000,512.000000) scale(0.100000,-0.100000)" fill="url(#tealGrad)" stroke="none">
      <path d="M0 2560 l0 -2560 2560 0 2560 0 0 2560 0 2560 -2560 0 -2560 0 0
-2560z m2778 1364 c225 -41 404 -114 582 -239 58 -41 158 -131 205 -185 22
-24 48 -54 58 -65 72 -80 194 -304 235 -430 50 -155 56 -201 57 -420 0 -169
-4 -226 -18 -290 -23 -96 -45 -174 -58 -197 -5 -10 -9 -22 -9 -28 0 -33 -133
-272 -193 -347 -46 -57 -102 -113 -113 -113 -8 0 -14 -6 -14 -12 1 -19 -122
-128 -143 -128 -10 0 -20 -7 -23 -15 -11 -28 -157 -111 -309 -176 -37 -15 -98
-28 -108 -22 -5 3 -12 1 -16 -5 -4 -7 -16 -13 -26 -15 -11 -2 -38 -9 -60 -15
-22 -6 -96 -16 -165 -21 -230 -19 -485 27 -696 125 -59 28 -96 30 -162 10 -26
-8 -94 -27 -152 -41 -58 -15 -130 -34 -160 -42 -30 -8 -77 -21 -105 -28 -27
-8 -75 -21 -106 -29 -31 -9 -66 -16 -79 -16 -21 0 -22 3 -17 41 3 23 9 45 14
48 5 3 10 20 11 36 1 17 8 50 16 75 7 25 22 74 31 110 10 36 24 88 32 115 8
28 18 66 23 85 5 19 16 58 24 87 23 76 20 102 -24 192 -22 44 -40 86 -40 91 0
6 -7 24 -14 39 -8 15 -17 39 -19 52 -2 13 -8 42 -14 64 -6 22 -17 63 -24 90
-17 68 -24 380 -10 442 6 26 14 66 16 88 5 40 27 123 47 180 40 112 133 295
149 295 5 0 9 5 9 12 0 28 218 278 243 278 4 0 22 14 40 31 49 49 134 109 156
109 10 0 21 6 24 14 5 12 55 39 169 90 20 9 48 16 62 16 14 0 26 5 26 10 0 6
9 10 20 10 10 0 30 5 43 11 99 45 419 63 585 33z"/>
      <path d="M2309 3703 c-1 -5 -1 -11 0 -15 0 -5 -12 -8 -28 -8 -17 0 -32 -4 -35
-9 -3 -5 -18 -12 -33 -15 -68 -17 -186 -76 -284 -143 -39 -26 -78 -53 -87 -58
-52 -33 -161 -151 -220 -240 -111 -164 -150 -255 -192 -450 -41 -189 -17 -469
56 -632 8 -17 14 -35 14 -41 0 -9 60 -122 90 -169 15 -23 11 -51 -25 -178 -8
-27 -21 -77 -30 -110 -9 -33 -21 -77 -27 -98 -6 -20 -8 -40 -5 -43 8 -8 126
18 282 61 114 32 141 31 228 -14 44 -23 83 -41 89 -41 5 0 24 -6 41 -14 94
-42 272 -76 396 -76 290 0 603 127 819 334 48 45 155 186 195 256 35 61 90
201 110 280 15 60 41 254 39 290 -14 244 -98 494 -221 660 -61 82 -196 221
-254 260 -20 14 -37 31 -37 39 0 7 -6 11 -14 8 -7 -3 -22 0 -32 7 -36 25 -137
76 -150 76 -8 0 -11 6 -7 17 5 13 2 15 -17 10 -13 -3 -49 2 -79 12 -109 36
-235 52 -387 50 -79 -1 -144 -6 -144 -10 0 -3 -9 -9 -19 -12 -14 -3 -18 -1
-14 9 3 8 0 14 -6 14 -6 0 -12 -3 -12 -7z m-350 -821 c25 -16 53 -31 61 -35 8
-4 29 -16 45 -26 17 -11 51 -31 77 -45 26 -14 72 -42 103 -61 49 -32 55 -39
55 -70 0 -18 -7 -40 -15 -49 -29 -29 -52 -28 -115 6 -106 57 -111 60 -116 55
-5 -5 49 -133 106 -251 21 -45 45 -98 54 -118 8 -21 21 -38 29 -38 17 0 86
137 186 365 54 122 73 145 122 145 32 0 49 -19 84 -95 15 -33 47 -100 70 -150
23 -49 53 -115 66 -145 25 -60 58 -120 66 -120 2 0 31 57 64 128 33 70 74 155
91 188 19 37 28 68 24 79 -5 15 -11 14 -54 -11 -102 -60 -124 -68 -152 -52
-33 18 -48 60 -31 90 12 23 23 31 131 91 30 16 87 49 125 71 118 70 132 76
163 76 68 0 79 -56 31 -159 -18 -36 -51 -106 -75 -156 -23 -49 -77 -164 -119
-255 -115 -248 -148 -314 -160 -322 -5 -4 -24 -8 -42 -8 -36 0 -53 19 -95 110
-14 30 -53 113 -87 183 -34 71 -61 133 -61 137 0 5 -10 25 -22 46 l-21 36 -18
-23 c-10 -13 -19 -27 -19 -31 0 -6 -70 -157 -146 -314 -19 -39 -34 -74 -34
-78 0 -4 -10 -20 -22 -36 -17 -24 -29 -30 -59 -30 -46 0 -61 15 -95 88 -14 31
-43 93 -64 137 -21 44 -50 105 -63 135 -45 99 -179 384 -203 432 -19 37 -17
65 6 88 28 28 74 25 129 -8z"/>
    </g>
  </g>
</svg>
